<?xml version="1.0" standalone="no"?>
<!DOCTYPE svg PUBLIC "-//W3C//DTD SVG 20010904//EN"
 "http://www.w3.org/TR/2001/REC-SVG-20010904/DTD/svg10.dtd">
<svg version="1.0" xmlns="http://www.w3.org/2000/svg"
 width="260.000000pt" height="260.000000pt" viewBox="0 0 260.000000 260.000000"
 preserveAspectRatio="xMidYMid meet">
<metadata>
Created by potrace 1.11, written by Peter Selinger 2001-2013
</metadata>
<g transform="translate(0.000000,260.000000) scale(0.100000,-0.100000)"
fill="#000000" stroke="none">
<path d="M2296 2489 c-38 -23 -110 -56 -160 -74 -149 -53 -247 -65 -567 -68
-325 -3 -391 -13 -525 -77 -91 -44 -158 -106 -215 -199 -57 -95 -74 -159 -73
-286 0 -133 22 -219 95 -378 27 -59 49 -112 49 -118 0 -5 -21 -7 -52 -3 -163
19 -401 -70 -501 -186 -93 -109 -132 -236 -124 -405 11 -246 126 -409 343
-486 84 -30 266 -37 366 -15 160 36 282 126 348 256 119 236 85 645 -86 1031
-25 56 -43 103 -41 105 2 2 28 -6 58 -18 47 -20 72 -22 204 -22 122 0 165 4
230 22 374 103 647 418 720 833 17 94 19 129 8 129 -5 0 -39 -19 -77 -41z
m-1439 -1554 c187 -56 188 -349 2 -410 -86 -29 -169 -7 -227 59 -73 83 -47
270 45 327 65 41 106 46 180 24z"/>
</g>
</svg>
