<?xml version="1.0" standalone="no"?>
<!DOCTYPE svg PUBLIC "-//W3C//DTD SVG 20010904//EN"
 "http://www.w3.org/TR/2001/REC-SVG-20010904/DTD/svg10.dtd">
<svg version="1.0" xmlns="http://www.w3.org/2000/svg"
 width="700.000000pt" height="700.000000pt" viewBox="0 0 700.000000 700.000000"
 preserveAspectRatio="xMidYMid meet">
<metadata>
Created by potrace 1.11, written by Peter Selinger 2001-2013
</metadata>
<g transform="translate(0.000000,700.000000) scale(0.100000,-0.100000)"
fill="#000000" stroke="none">
<path d="M6512 6706 c-243 -161 -486 -272 -764 -350 -124 -35 -371 -87 -478
-101 -30 -4 -64 -9 -75 -11 -66 -14 -227 -19 -495 -16 -725 8 -969 5 -999 -12
-3 -2 -35 -7 -70 -10 -36 -4 -67 -8 -70 -10 -3 -2 -26 -7 -51 -10 -333 -45
-623 -156 -825 -315 -99 -79 -168 -151 -255 -269 -101 -135 -142 -210 -201
-366 -151 -395 -137 -789 45 -1291 35 -97 43 -114 91 -220 13 -27 35 -77 50
-110 16 -33 44 -94 63 -135 58 -127 82 -183 79 -186 -1 -2 -29 1 -62 6 -61 9
-392 6 -455 -4 -19 -3 -53 -8 -75 -12 -145 -23 -362 -97 -526 -179 -427 -213
-696 -602 -756 -1095 -10 -81 -9 -365 1 -445 9 -69 11 -83 25 -145 18 -83 20
-93 47 -174 197 -595 715 -943 1413 -949 242 -2 424 24 618 88 402 134 688
412 840 815 36 98 90 311 107 430 86 597 -22 1300 -313 2027 -42 106 -59 144
-121 278 -63 135 -102 227 -97 231 2 2 26 -7 54 -21 102 -49 276 -96 438 -120
87 -13 440 -14 494 -1 13 3 49 8 80 11 182 20 491 110 701 204 322 144 667
403 870 651 25 30 57 68 72 85 15 16 52 66 84 110 283 393 479 885 540 1350 2
22 7 47 9 55 3 8 7 49 10 90 3 41 8 94 11 118 3 23 4 42 2 42 -2 0 -27 -15
-56 -34z m-4180 -4240 c69 -9 157 -43 216 -82 156 -103 241 -269 248 -484 9
-285 -121 -502 -356 -591 -146 -55 -363 -41 -504 34 -248 132 -339 491 -204
802 107 246 319 359 600 321z"/>
</g>
</svg>
