<svg width="320px" height="52px" viewBox="0 0 320 52" version="1.1" xmlns="http://www.w3.org/2000/svg" xmlns:xlink="http://www.w3.org/1999/xlink" xmlns:sketch="http://www.bohemiancoding.com/sketch/ns">
    <defs>
        <path id="path-1" d="M0,0.962 L319.062,0.962 L319.062,52 L0,52 L0,0.962 Z"></path>
        <path id="path-3" d="M0,0.962 L319.062,0.962 L319.062,52 L0,52 L0,0.962 Z"></path>
    </defs>
    <g id="Page-1" stroke="none" stroke-width="1" fill="none" fill-rule="evenodd">
        <g sketch:type="MSLayerGroup">
            <g id="Group-3">
                <mask id="mask-2" sketch:name="Clip 2" fill="white">
                    <use xlink:href="#path-1"></use>
                </mask>
                <g id="Clip-2"></g>
                <path d="M129.4824,34.5238 C133.0574,34.5238 135.4404,32.3388 135.8374,29.9558 L135.8374,25.3888 C135.4404,23.0058 133.0574,20.6228 129.4824,20.6228 C125.9074,20.6228 123.3264,22.4098 123.3264,27.7718 C123.3264,32.7368 126.1064,34.5238 129.4824,34.5238 L129.4824,34.5238 Z M136.0364,37.3038 C134.8444,39.6868 132.0644,40.6798 128.4894,40.6798 C120.7444,40.6798 116.3754,36.5098 116.3754,27.3748 C116.3754,18.2388 120.9434,14.0688 128.6884,14.0688 C132.4614,14.0688 135.0434,15.4588 136.4334,18.0408 L136.8304,14.8628 L142.9864,14.8628 L142.7884,22.0128 L142.7884,41.4748 C142.7884,48.8228 137.2274,51.9998 129.8794,51.9998 C121.1414,51.9998 117.7654,48.8228 117.3684,43.6588 L124.7164,42.4678 C124.9144,44.4538 125.9074,46.2408 129.8794,46.2408 C133.6524,46.2408 136.2344,44.6518 136.2344,40.8788 L136.0364,37.3038 Z M94.9274,18.4378 C96.5164,16.0548 99.0974,14.2678 103.0694,14.2678 C109.2264,14.2678 112.8004,17.4448 112.8004,23.6008 L112.8004,41.4748 L106.0484,41.4748 L106.0484,24.5938 C106.0484,22.0128 104.6584,20.6228 101.8784,20.6228 C98.3034,20.6228 95.9204,23.0058 95.3244,24.9918 L95.3244,41.2758 L88.7714,41.2758 L88.7714,22.2108 L88.5724,15.0618 L94.7284,15.0618 L94.9274,18.4378 Z M77.0544,15.0618 L83.8064,15.0618 L83.8064,41.4748 L77.0544,41.4748 L77.0544,15.0618 Z M80.6284,0.9618 C83.0114,0.9618 85.1964,2.9478 85.1964,5.5288 C85.1964,7.9128 83.2104,9.8978 80.6284,9.8978 C78.2454,9.8978 76.2594,7.9128 76.2594,5.5288 C76.0614,3.1458 78.2454,0.9618 80.6284,0.9618 L80.6284,0.9618 Z M73.8764,21.2178 C68.7134,21.2178 65.7344,24.3958 64.9394,26.7788 L64.9394,41.4748 L58.3864,41.4748 L58.3864,22.2108 L57.9894,15.0618 L64.1454,15.0618 L64.5424,19.8278 C65.9324,16.6508 68.5144,14.0688 74.0754,14.0688 L73.8764,21.2178 Z M40.9104,20.8208 C37.3354,20.8208 35.1504,23.0058 34.5554,25.1898 L34.5554,31.3468 C34.9524,33.5308 37.3354,35.7158 40.9104,35.7158 C44.4844,35.7158 47.0664,33.1338 47.0664,27.9698 C47.0664,23.2038 44.4844,20.8208 40.9104,20.8208 L40.9104,20.8208 Z M34.7534,51.4038 L28.0014,51.4038 L28.0014,22.2108 L27.6044,15.0618 L33.7604,15.0618 L34.1584,18.4378 C35.5484,15.6578 38.9244,14.4658 42.1014,14.4658 C50.2444,14.4658 54.2154,19.2318 54.2154,28.3678 C54.2154,37.5028 50.0454,42.2688 42.1014,42.2688 C38.1294,42.2688 35.7464,40.8788 34.5554,38.8928 L34.7534,51.4038 Z M17.6744,33.9278 C17.6744,31.9418 15.8874,31.7438 11.9154,31.3468 C6.7524,30.9488 1.1914,29.9558 1.1914,23.2038 C1.1914,16.8488 7.3484,14.6648 12.7104,14.6648 C20.6534,14.6648 23.6324,17.2458 24.4264,23.0058 L17.2774,23.7998 C16.8804,21.4168 15.6884,20.2248 12.3124,20.2248 C10.1284,20.2248 8.1424,20.8208 8.1424,22.6078 C8.1424,24.3958 9.7314,24.5938 13.5044,24.9918 C18.8664,25.3888 24.4264,26.1828 24.4264,33.1338 C24.4264,39.6868 18.6674,41.8718 12.1144,41.8718 C4.1704,41.8718 0.3974,39.0918 0.0004,33.3318 L7.1494,32.5378 C7.3484,35.1198 8.9364,36.3108 12.3124,36.3108 C15.6884,36.5098 17.6744,36.1128 17.6744,33.9278 L17.6744,33.9278 Z" id="Fill-1" fill="#6E6B6E" sketch:type="MSShapeGroup" mask="url(#mask-2)"></path>
            </g>
            <path d="M145.9831,15.0305 L150.4631,15.0305 L150.4631,8.4035 L156.9461,7.1645 L156.9461,15.0305 L164.1921,15.0305 L164.1921,20.8915 L156.9461,20.8915 L156.9461,31.4835 C156.9461,35.0115 158.0421,35.7755 160.3781,35.8705 C161.9511,35.9655 163.4291,35.3445 164.0481,35.0115 L164.6671,41.1615 C163.7631,41.5415 162.1891,41.9235 160.2831,41.9235 C152.0371,41.9235 150.4631,36.9665 150.4631,31.8195 L150.4631,20.8915 L145.9831,20.8915 L145.9831,15.0305 Z" id="Fill-4" fill="#6E6B6E" sketch:type="MSShapeGroup"></path>
            <path d="M145.9831,15.0305 L150.4631,15.0305 L150.4631,8.4035 L156.9461,7.1645 L156.9461,15.0305 L164.1921,15.0305 L164.1921,20.8915 L156.9461,20.8915 L156.9461,31.4835 C156.9461,35.0115 158.0421,35.7755 160.3781,35.8705 C161.9511,35.9655 163.4291,35.3445 164.0481,35.0115 L164.6671,41.1615 C163.7631,41.5415 162.1891,41.9235 160.2831,41.9235 C152.0371,41.9235 150.4631,36.9665 150.4631,31.8195 L150.4631,20.8915 L145.9831,20.8915 L145.9831,15.0305 L145.9831,15.0305 Z" id="Stroke-6" stroke="#6E6B6E" stroke-width="0.496" sketch:type="MSShapeGroup"></path>
            <path d="M185.8529,37.8719 C184.0419,40.3989 181.1809,41.9229 177.9869,41.9229 C172.1239,41.9229 168.2159,39.0629 168.2159,33.0099 L168.2159,15.0669 L174.6979,15.0669 L174.6979,32.0559 C174.6979,34.6779 176.4629,35.8219 179.1309,35.8219 C182.4199,35.8219 184.8499,33.5819 185.4709,31.6269 L185.4709,15.0669 L191.9059,15.0669 L191.9059,34.4389 L192.3339,41.2559 L186.3769,41.2559 L185.8529,37.8719 Z" id="Fill-8" fill="#6E6B6E" sketch:type="MSShapeGroup"></path>
            <path d="M185.8529,37.8719 C184.0419,40.3989 181.1809,41.9229 177.9869,41.9229 C172.1239,41.9229 168.2159,39.0629 168.2159,33.0099 L168.2159,15.0669 L174.6979,15.0669 L174.6979,32.0559 C174.6979,34.6779 176.4629,35.8219 179.1309,35.8219 C182.4199,35.8219 184.8499,33.5819 185.4709,31.6269 L185.4709,15.0669 L191.9059,15.0669 L191.9059,34.4389 L192.3339,41.2559 L186.3769,41.2559 L185.8529,37.8719 L185.8529,37.8719 Z" id="Stroke-10" stroke="#6E6B6E" stroke-width="0.496" sketch:type="MSShapeGroup"></path>
            <path d="M202.5878,18.449 C204.3988,15.924 207.2598,14.4 210.4538,14.4 C216.3168,14.4 220.2248,17.258 220.2248,23.313 L220.2248,41.256 L213.7428,41.256 L213.7428,24.265 C213.7428,21.643 211.9778,20.501 209.3098,20.501 C206.0208,20.501 203.5908,22.741 202.9698,24.694 L202.9698,41.256 L196.5348,41.256 L196.5348,21.882 L196.1068,15.067 L202.0638,15.067 L202.5878,18.449 Z" id="Fill-12" fill="#6E6B6E" sketch:type="MSShapeGroup"></path>
            <path d="M202.5878,18.449 C204.3988,15.924 207.2598,14.4 210.4538,14.4 C216.3168,14.4 220.2248,17.258 220.2248,23.313 L220.2248,41.256 L213.7428,41.256 L213.7428,24.265 C213.7428,21.643 211.9778,20.501 209.3098,20.501 C206.0208,20.501 203.5908,22.741 202.9698,24.694 L202.9698,41.256 L196.5348,41.256 L196.5348,21.882 L196.1068,15.067 L202.0638,15.067 L202.5878,18.449 L202.5878,18.449 Z" id="Stroke-14" stroke="#6E6B6E" stroke-width="0.496" sketch:type="MSShapeGroup"></path>
            <path d="M230.5993,25.6314 L241.4273,25.6314 C241.2803,22.1684 239.5743,20.5094 236.3053,20.5094 C233.0863,20.5094 230.9403,22.0714 230.5993,25.6314 L230.5993,25.6314 Z M230.5493,30.8514 C230.7443,34.5084 233.1353,36.1184 236.4523,36.1184 C239.9153,36.1674 241.2333,34.8024 241.6223,33.0464 L248.4033,33.8754 C247.7183,38.2164 244.8413,41.9234 236.5993,41.9234 C228.3543,41.9234 223.5263,37.1424 223.5263,28.3144 C223.5263,19.4854 228.3543,14.7064 236.2573,14.7064 C244.2553,14.7064 248.5483,19.5324 248.5483,28.3144 L248.5483,30.8514 L230.5493,30.8514 Z" id="Fill-16" fill="#6E6B6E" sketch:type="MSShapeGroup"></path>
            <path d="M268.2532,33.9281 C268.2532,31.9421 266.4662,31.7431 262.4942,31.3461 C257.3302,30.9491 251.7702,29.9561 251.7702,23.2041 C251.7702,16.8491 257.9262,14.6641 263.2882,14.6641 C271.2322,14.6641 274.2112,17.2461 275.0052,23.0051 L267.8562,23.8001 C267.4592,21.4171 266.2672,20.2251 262.8912,20.2251 C260.7062,20.2251 258.7212,20.8211 258.7212,22.6081 C258.7212,24.3961 260.3092,24.5941 264.0832,24.9911 C269.4452,25.3891 275.0052,26.1831 275.0052,33.1341 C275.0052,39.6871 269.2462,41.8721 262.6922,41.8721 C254.7492,41.8721 250.9752,39.0911 250.5782,33.3321 L257.7282,32.5381 C257.9262,35.1201 259.5152,36.3111 262.8912,36.3111 C266.2672,36.5101 268.2532,36.1131 268.2532,33.9281" id="Fill-18" fill="#6E6B6E" sketch:type="MSShapeGroup"></path>
            <path d="M297.4318,8.2416 C297.4318,8.2416 291.0308,10.6866 295.2438,19.3046 C299.9598,28.9476 297.7438,34.7416 297.7438,34.7416" id="Stroke-20" stroke="#A5CC8E" stroke-width="5.958" stroke-linecap="round" stroke-linejoin="round" sketch:type="MSShapeGroup"></path>
            <path d="M291.549,28.1724 C293.733,28.1724 295.124,29.7614 295.124,31.9454 C295.124,34.1304 293.733,35.7194 291.549,35.7194 C289.166,35.7194 287.974,34.1304 287.974,31.9454 C288.173,29.9594 289.166,28.1724 291.549,28.1724 M287.776,23.4064 C283.804,24.7964 281.619,27.9734 281.619,32.3434 C281.619,37.9034 285.194,41.8754 291.35,41.8754 C297.507,41.8754 301.081,37.9034 301.081,32.3434 C301.081,27.7754 298.698,24.3994 294.528,23.0094 C294.528,23.0094 291.191,22.0334 287.776,23.4064" id="Fill-22" fill="#A5CC8E" sketch:type="MSShapeGroup"></path>
            <g id="Group-26">
                <mask id="mask-4" sketch:name="Clip 25" fill="white">
                    <use xlink:href="#path-3"></use>
                </mask>
                <g id="Clip-25"></g>
                <path d="M296.062,16.3487 C298.921,18.4967 302.045,18.5787 304.913,18.0817 C313.518,16.5927 318.583,9.0307 319.063,1.0187 C316.554,2.6967 314.368,3.5417 311.5,4.0377 C306.519,4.8997 304.597,3.6777 299.314,4.5917 C294.785,5.3757 290.695,7.7937 291.246,15.4717 L296.062,16.3487 Z" id="Fill-24" fill="#A5CC8E" sketch:type="MSShapeGroup" mask="url(#mask-4)"></path>
            </g>
        </g>
    </g>
</svg>