<?xml version="1.0" encoding="utf-8"?>
<!-- Generator: Adobe Illustrator 20.1.0, SVG Export Plug-In . SVG Version: 6.00 Build 0)  -->
<svg version="1.1" id="Layer_1" xmlns:sketch="http://www.bohemiancoding.com/sketch/ns"
	 xmlns="http://www.w3.org/2000/svg" xmlns:xlink="http://www.w3.org/1999/xlink" x="0px" y="0px" viewBox="0 0 320 52"
	 style="enable-background:new 0 0 320 52;" xml:space="preserve">
<style type="text/css">
	.st0{fill:#7DC265;}
	.st1{fill:#61616A;}
</style>
<g id="Clip-25">
</g>
<path class="st0" d="M311.5,4c-5,0.9-6.9-0.4-12.2,0.6c-2.6,0.4-5,1.4-6.5,3.6c-0.5,0.6-1,1.4-1.3,2.3c-1.2,2.9-0.8,6.3,1.1,10.2
	c0.4,0.8,0.7,1.5,1,2.2c-1.2-0.2-3.5-0.3-5.8,0.6c-4,1.4-6.2,4.6-6.2,8.9c0,5.6,3.6,9.5,9.7,9.5c5.1,0,8.4-2.7,9.4-6.9
	c0.6-2.1,1.5-8.2-2.8-17c-0.1-0.2-0.2-0.5-0.3-0.7c2.4,1.2,5,1.2,7.3,0.8c8.6-1.5,13.7-9.1,14.1-17.1C316.6,2.7,314.4,3.5,311.5,4z
	 M291.5,35.7c-2.4,0-3.6-1.6-3.6-3.8c0.2-2,1.2-3.8,3.6-3.8c2.2,0,3.6,1.6,3.6,3.8C295.1,34.1,293.7,35.7,291.5,35.7z"/>
<g id="Clip-2">
</g>
<g>
	<path class="st1" d="M103.1,14.3c-4,0-6.6,1.8-8.1,4.2l-0.2-3.4h-6.2l0.2,7.1v19.1h6.6V25c0.6-2,3-4.4,6.6-4.4c2.8,0,4.2,1.4,4.2,4
		v16.9h6.8V23.6C112.8,17.4,109.2,14.3,103.1,14.3z"/>
	<path class="st1" d="M80.6,1c-2.4,0-4.6,2.2-4.4,4.6c0,2.4,2,4.4,4.4,4.4c2.6,0,4.6-2,4.6-4.4C85.2,2.9,83,1,80.6,1z"/>
	<rect x="77.1" y="15.1" class="st1" width="6.8" height="26.4"/>
	<path class="st1" d="M64.5,19.8l-0.4-4.8H58l0.4,7.1v19.3h6.6V26.8c0.8-2.4,3.8-5.6,8.9-5.6l0.2-7.1C68.5,14.1,65.9,16.7,64.5,19.8
		z"/>
	<path class="st1" d="M12.3,20.2c3.4,0,4.6,1.2,5,3.6l7.1-0.8c-0.8-5.8-3.8-8.3-11.7-8.3c-5.4,0-11.5,2.2-11.5,8.5
		c0,6.8,5.6,7.7,10.7,8.1c4,0.4,5.8,0.6,5.8,2.6c0,2.2-2,2.6-5.4,2.4c-3.4,0-5-1.2-5.2-3.8L0,33.3c0.4,5.8,4.2,8.5,12.1,8.5
		c6.6,0,12.3-2.2,12.3-8.7c0-7-5.6-7.7-10.9-8.1c-3.8-0.4-5.4-0.6-5.4-2.4C8.1,20.8,10.1,20.2,12.3,20.2z"/>
	<path class="st1" d="M42.1,14.5c-3.2,0-6.6,1.2-7.9,4l-0.4-3.4h-6.2l0.4,7.1v29.2h6.8l-0.2-12.5c1.2,2,3.6,3.4,7.5,3.4
		c7.9,0,12.1-4.8,12.1-13.9C54.2,19.2,50.2,14.5,42.1,14.5z M40.9,35.7c-3.6,0-6-2.2-6.4-4.4v-6.2c0.6-2.2,2.8-4.4,6.4-4.4
		c3.6,0,6.2,2.4,6.2,7.1C47.1,33.1,44.5,35.7,40.9,35.7z"/>
	<path class="st1" d="M136.4,18c-1.4-2.6-4-4-7.7-4c-7.7,0-12.3,4.2-12.3,13.3c0,9.1,4.4,13.3,12.1,13.3c3.6,0,6.4-1,7.5-3.4
		l0.2,3.6c0,3.8-2.6,5.4-6.4,5.4c-4,0-5-1.8-5.2-3.8l-7.3,1.2c0.4,5.2,3.8,8.3,12.5,8.3c7.3,0,12.9-3.2,12.9-10.5V22l0.2-7.1h-6.2
		L136.4,18z M135.8,30c-0.4,2.4-2.8,4.6-6.4,4.6c-3.4,0-6.2-1.8-6.2-6.8c0-5.4,2.6-7.1,6.2-7.1s6,2.4,6.4,4.8V30z"/>
	<path class="st1" d="M160.4,35.9c-2.3-0.1-3.4-0.9-3.4-4.4V20.9h7.2V15h-7.2V7.2l-6.5,1.2V15H146v5.9h4.5v10.9
		c0,5.1,1.6,10.1,9.8,10.1c1.9,0,3.5-0.4,4.4-0.8L164,35C163.4,35.3,162,36,160.4,35.9z"/>
	<path class="st1" d="M191.9,15.1h-6.4v16.6c-0.6,2-3.1,4.2-6.3,4.2c-2.7,0-4.4-1.1-4.4-3.8v-17h-6.5V33c0,6.1,3.9,8.9,9.8,8.9
		c3.2,0,6.1-1.5,7.9-4.1l0.5,3.4h6l-0.4-6.8V15.1z"/>
	<path class="st1" d="M210.5,14.4c-3.2,0-6.1,1.5-7.9,4l-0.5-3.4h-6l0.4,6.8v19.4h6.4V24.7c0.6-2,3.1-4.2,6.3-4.2
		c2.7,0,4.4,1.1,4.4,3.8v17h6.5V23.3C220.2,17.3,216.3,14.4,210.5,14.4z"/>
	<path class="st1" d="M236.3,14.7c-7.9,0-12.7,4.8-12.7,13.6c0,8.8,4.8,13.6,13.1,13.6c8.2,0,11.1-3.7,11.8-8l-6.8-0.8
		c-0.4,1.8-1.7,3.1-5.2,3.1c-3.3,0-5.7-1.6-5.9-5.3h18v-2.5C248.5,19.5,244.3,14.7,236.3,14.7z M230.6,25.6c0.3-3.6,2.5-5.1,5.7-5.1
		c3.3,0,5,1.7,5.1,5.1H230.6z"/>
	<path class="st1" d="M264.1,25c-3.8-0.4-5.4-0.6-5.4-2.4c0-1.8,2-2.4,4.2-2.4c3.4,0,4.6,1.2,5,3.6L275,23
		c-0.8-5.8-3.8-8.3-11.7-8.3c-5.4,0-11.5,2.2-11.5,8.5c0,6.8,5.6,7.7,10.7,8.1c4,0.4,5.8,0.6,5.8,2.6c0,2.2-2,2.6-5.4,2.4
		c-3.4,0-5-1.2-5.2-3.8l-7.2,0.8c0.4,5.8,4.2,8.5,12.1,8.5c6.6,0,12.3-2.2,12.3-8.7C275,26.2,269.4,25.4,264.1,25z"/>
</g>
</svg>
